<svg width="111" height="16" viewBox="0 0 111 16" fill="none" display="block" xmlns="http://www.w3.org/2000/svg">
<path fill-rule="evenodd" clip-rule="evenodd" d="M38.4307 1.1572C37.8986 1.34046 37.4251 1.61187 37.0101 1.97145H37.0112C36.5962 2.33103 36.1547 2.81839 35.6889 3.43254L27.1875 14.8865H31.8863L39.2077 4.92335C39.3832 4.68759 39.5466 4.5182 39.7 4.4132C39.8523 4.30919 40.0599 4.25669 40.3226 4.25669C40.5698 4.25669 40.7817 4.31217 40.9561 4.42311C41.1316 4.53405 41.284 4.69453 41.4153 4.90354L48.7798 14.8865H53.4344L45.0203 3.45235C44.5975 2.85108 44.1858 2.37065 43.7851 2.01107C43.3845 1.65149 42.9032 1.37314 42.3425 1.17701C41.7818 0.980879 41.1085 0.882812 40.3215 0.882812C39.5919 0.882812 38.9627 0.973945 38.4307 1.1572ZM9.8237 14.0322C10.2387 14.3928 10.7123 14.6632 11.2443 14.8465H11.2432C11.7752 15.0297 12.4055 15.1209 13.134 15.1209C13.9199 15.1209 14.5943 15.0228 15.155 14.8267C15.7157 14.6305 16.197 14.3522 16.5976 13.9926C16.9983 13.633 17.41 13.1526 17.8328 12.5513L26.2469 1.11719H21.5923L14.2278 11.1002C14.0965 11.3092 13.943 11.4696 13.7686 11.5806C13.5942 11.6915 13.3823 11.747 13.1351 11.747C12.8735 11.747 12.666 11.6955 12.5125 11.5905C12.3591 11.4855 12.1946 11.3161 12.0202 11.0803L4.69882 1.11719H0L8.50137 12.5711C8.96716 13.1863 9.40868 13.6727 9.8237 14.0322ZM59.5532 11.8649H75.8572C76.323 11.8649 76.6696 11.7668 76.8959 11.5707C77.121 11.3745 77.2347 11.0803 77.2347 10.6881C77.2347 10.2958 77.1222 9.9818 76.8959 9.78567C76.6696 9.58954 76.3241 9.49147 75.8572 9.49147H63.9032C62.4021 9.49147 61.2298 9.11604 60.3843 8.3642C59.5388 7.61236 59.1172 6.56929 59.1172 5.23598C59.1172 3.90267 59.5399 2.93191 60.3843 2.20582C61.2287 1.47974 62.3877 1.11719 63.8591 1.11719H80.3375V4.13744H64.209C63.7421 4.13744 63.3899 4.23253 63.1493 4.42173C62.9087 4.61192 62.7884 4.90216 62.7884 5.29442C62.7884 5.71343 62.9087 6.01655 63.1493 6.20674C63.3899 6.39594 63.7575 6.49103 64.2531 6.49103H76.0769C77.6211 6.49103 78.8087 6.85754 79.6388 7.58957C80.4688 8.32161 80.885 9.37458 80.885 10.7475C80.885 12.1204 80.4733 13.0714 79.6498 13.7975C78.8264 14.5236 77.6718 14.8861 76.1861 14.8861H59.5543V11.8659L59.5532 11.8649ZM87.8906 4.13744H97.0697V14.8851H100.916V4.13744H110.051V1.11719H87.8906V4.13744Z" fill="currentcolor"></path>
</svg>